<?xml version="1.0" encoding="UTF-8" standalone="yes"?><svg xmlns="http://www.w3.org/2000/svg" xmlns:xlink="http://www.w3.org/1999/xlink" height="1410pt" style="width:1209px;height:1410px;" version="1.1" viewBox="0 0 1209 1410" width="1209pt"><defs><filter height="300%" id="f1" width="300%" x="-1" y="-1"><feGaussianBlur result="blurOut" stdDeviation="2.0"/><feColorMatrix in="blurOut" result="blurOut2" type="matrix" values="0 0 0 0 0 0 0 0 0 0 0 0 0 0 0 0 0 0 .4 0"/><feOffset dx="4.0" dy="4.0" in="blurOut2" result="blurOut3"/><feBlend in="SourceGraphic" in2="blurOut3" mode="normal"/></filter></defs><g><rect fill="#FFFFFF" filter="url(#f1)" height="280.0625" style="stroke: #A80036; stroke-width: 1.0;" width="10" x="249" y="93.2969"/><rect fill="#FFFFFF" filter="url(#f1)" height="122.5313" style="stroke: #A80036; stroke-width: 1.0;" width="10" x="249" y="501.0234"/><rect fill="#FFFFFF" filter="url(#f1)" height="34.1328" style="stroke: #A80036; stroke-width: 1.0;" width="10" x="249" y="699.8203"/><rect fill="#FFFFFF" filter="url(#f1)" height="29.1328" style="stroke: #A80036; stroke-width: 1.0;" width="10" x="249" y="947.8828"/><rect fill="#FFFFFF" filter="url(#f1)" height="29.1328" style="stroke: #A80036; stroke-width: 1.0;" width="10" x="249" y="1171.9453"/><rect fill="#FFFFFF" filter="url(#f1)" height="29.1328" style="stroke: #A80036; stroke-width: 1.0;" width="10" x="249" y="1279.3438"/><rect fill="#FFFFFF" filter="url(#f1)" height="29.1328" style="stroke: #A80036; stroke-width: 1.0;" width="10" x="361" y="471.8906"/><rect fill="#FFFFFF" filter="url(#f1)" height="139.5313" style="stroke: #A80036; stroke-width: 1.0;" width="10" x="490.5" y="623.5547"/><rect fill="#FFFFFF" filter="url(#f1)" height="136.6641" style="stroke: #A80036; stroke-width: 1.0;" width="10" x="490.5" y="947.8828"/><rect fill="#FFFFFF" filter="url(#f1)" height="107.3984" style="stroke: #A80036; stroke-width: 1.0;" width="10" x="490.5" y="1171.9453"/><rect fill="#FFFFFF" filter="url(#f1)" height="184.7969" style="stroke: #A80036; stroke-width: 1.0;" width="10" x="830.5" y="763.0859"/><rect fill="#FFFFFF" filter="url(#f1)" height="87.3984" style="stroke: #A80036; stroke-width: 1.0;" width="10" x="830.5" y="1084.5469"/><rect fill="#FFFFFF" filter="url(#f1)" height="29.1328" style="stroke: #A80036; stroke-width: 1.0;" width="10" x="1101.5" y="236.8281"/><rect fill="#FFFFFF" filter="url(#f1)" height="98.5313" style="stroke: #A80036; stroke-width: 1.0;" width="10" x="1101.5" y="373.3594"/><rect fill="#FFFFFF" filter="url(#f1)" height="87.3984" style="stroke: #A80036; stroke-width: 1.0;" width="10" x="1101.5" y="792.2188"/><rect fill="#FFFFFF" filter="url(#f1)" height="29.1328" style="stroke: #A80036; stroke-width: 1.0;" width="10" x="1101.5" y="1113.6797"/><rect fill="#FFFFFF" filter="url(#f1)" height="162.7969" style="stroke: #000000; stroke-width: 2.0;" width="950" x="213" y="1046.4141"/><line style="stroke: #A80036; stroke-width: 1.0; stroke-dasharray: 5.0,5.0;" x1="24" x2="24" y1="83.2969" y2="1326.6094"/><line style="stroke: #A80036; stroke-width: 1.0; stroke-dasharray: 5.0,5.0;" x1="254" x2="254" y1="83.2969" y2="1326.6094"/><line style="stroke: #A80036; stroke-width: 1.0; stroke-dasharray: 5.0,5.0;" x1="366" x2="366" y1="83.2969" y2="1326.6094"/><line style="stroke: #A80036; stroke-width: 1.0; stroke-dasharray: 5.0,5.0;" x1="495" x2="495" y1="83.2969" y2="1326.6094"/><line style="stroke: #A80036; stroke-width: 1.0; stroke-dasharray: 5.0,5.0;" x1="835" x2="835" y1="83.2969" y2="1326.6094"/><line style="stroke: #A80036; stroke-width: 1.0; stroke-dasharray: 5.0,5.0;" x1="1106" x2="1106" y1="83.2969" y2="1326.6094"/><text fill="#000000" font-family="sans-serif" font-size="14" lengthAdjust="spacingAndGlyphs" textLength="32" x="5" y="79.9951">User</text><ellipse cx="24" cy="10" fill="#FEFECE" filter="url(#f1)" rx="8" ry="8" style="stroke: #A80036; stroke-width: 2.0;"/><path d="M24,18 L24,45 M11,26 L37,26 M24,45 L11,60 M24,45 L37,60 " fill="#FEFECE" filter="url(#f1)" style="stroke: #A80036; stroke-width: 2.0;"/><text fill="#000000" font-family="sans-serif" font-size="14" lengthAdjust="spacingAndGlyphs" textLength="32" x="5" y="1337.6982">User</text><ellipse cx="24" cy="1351" fill="#FEFECE" filter="url(#f1)" rx="8" ry="8" style="stroke: #A80036; stroke-width: 2.0;"/><path d="M24,1359 L24,1386 M11,1367 L37,1367 M24,1386 L11,1401 M24,1386 L37,1401 " fill="#FEFECE" filter="url(#f1)" style="stroke: #A80036; stroke-width: 2.0;"/><rect fill="#FEFECE" filter="url(#f1)" height="30.2969" style="stroke: #A80036; stroke-width: 1.5;" width="58" x="223" y="48"/><text fill="#000000" font-family="sans-serif" font-size="14" lengthAdjust="spacingAndGlyphs" textLength="44" x="230" y="67.9951">eXe UI</text><rect fill="#FEFECE" filter="url(#f1)" height="30.2969" style="stroke: #A80036; stroke-width: 1.5;" width="58" x="223" y="1324.7031"/><text fill="#000000" font-family="sans-serif" font-size="14" lengthAdjust="spacingAndGlyphs" textLength="44" x="230" y="1344.6982">eXe UI</text><rect fill="#FEFECE" filter="url(#f1)" height="30.2969" style="stroke: #A80036; stroke-width: 1.5;" width="138" x="295" y="48"/><text fill="#000000" font-family="sans-serif" font-size="14" lengthAdjust="spacingAndGlyphs" textLength="124" x="302" y="67.9951">eXe Auth Callback</text><rect fill="#FEFECE" filter="url(#f1)" height="30.2969" style="stroke: #A80036; stroke-width: 1.5;" width="138" x="295" y="1324.7031"/><text fill="#000000" font-family="sans-serif" font-size="14" lengthAdjust="spacingAndGlyphs" textLength="124" x="302" y="1344.6982">eXe Auth Callback</text><rect fill="#FEFECE" filter="url(#f1)" height="30.2969" style="stroke: #A80036; stroke-width: 1.5;" width="93" x="447" y="48"/><text fill="#000000" font-family="sans-serif" font-size="14" lengthAdjust="spacingAndGlyphs" textLength="79" x="454" y="67.9951">eXe Engine</text><rect fill="#FEFECE" filter="url(#f1)" height="30.2969" style="stroke: #A80036; stroke-width: 1.5;" width="93" x="447" y="1324.7031"/><text fill="#000000" font-family="sans-serif" font-size="14" lengthAdjust="spacingAndGlyphs" textLength="79" x="454" y="1344.6982">eXe Engine</text><rect fill="#FEFECE" filter="url(#f1)" height="30.2969" style="stroke: #A80036; stroke-width: 1.5;" width="211" x="728" y="48"/><text fill="#000000" font-family="sans-serif" font-size="14" lengthAdjust="spacingAndGlyphs" textLength="197" x="735" y="67.9951">eXe Engine Deferred Thread</text><rect fill="#FEFECE" filter="url(#f1)" height="30.2969" style="stroke: #A80036; stroke-width: 1.5;" width="211" x="728" y="1324.7031"/><text fill="#000000" font-family="sans-serif" font-size="14" lengthAdjust="spacingAndGlyphs" textLength="197" x="735" y="1344.6982">eXe Engine Deferred Thread</text><rect fill="#FEFECE" filter="url(#f1)" height="30.2969" style="stroke: #A80036; stroke-width: 1.5;" width="89" x="1060" y="48"/><text fill="#000000" font-family="sans-serif" font-size="14" lengthAdjust="spacingAndGlyphs" textLength="75" x="1067" y="67.9951">Google API</text><rect fill="#FEFECE" filter="url(#f1)" height="30.2969" style="stroke: #A80036; stroke-width: 1.5;" width="89" x="1060" y="1324.7031"/><text fill="#000000" font-family="sans-serif" font-size="14" lengthAdjust="spacingAndGlyphs" textLength="75" x="1067" y="1344.6982">Google API</text><rect fill="#FFFFFF" filter="url(#f1)" height="280.0625" style="stroke: #A80036; stroke-width: 1.0;" width="10" x="249" y="93.2969"/><rect fill="#FFFFFF" filter="url(#f1)" height="122.5313" style="stroke: #A80036; stroke-width: 1.0;" width="10" x="249" y="501.0234"/><rect fill="#FFFFFF" filter="url(#f1)" height="34.1328" style="stroke: #A80036; stroke-width: 1.0;" width="10" x="249" y="699.8203"/><rect fill="#FFFFFF" filter="url(#f1)" height="29.1328" style="stroke: #A80036; stroke-width: 1.0;" width="10" x="249" y="947.8828"/><rect fill="#FFFFFF" filter="url(#f1)" height="29.1328" style="stroke: #A80036; stroke-width: 1.0;" width="10" x="249" y="1171.9453"/><rect fill="#FFFFFF" filter="url(#f1)" height="29.1328" style="stroke: #A80036; stroke-width: 1.0;" width="10" x="249" y="1279.3438"/><rect fill="#FFFFFF" filter="url(#f1)" height="29.1328" style="stroke: #A80036; stroke-width: 1.0;" width="10" x="361" y="471.8906"/><rect fill="#FFFFFF" filter="url(#f1)" height="139.5313" style="stroke: #A80036; stroke-width: 1.0;" width="10" x="490.5" y="623.5547"/><rect fill="#FFFFFF" filter="url(#f1)" height="136.6641" style="stroke: #A80036; stroke-width: 1.0;" width="10" x="490.5" y="947.8828"/><rect fill="#FFFFFF" filter="url(#f1)" height="107.3984" style="stroke: #A80036; stroke-width: 1.0;" width="10" x="490.5" y="1171.9453"/><rect fill="#FFFFFF" filter="url(#f1)" height="184.7969" style="stroke: #A80036; stroke-width: 1.0;" width="10" x="830.5" y="763.0859"/><rect fill="#FFFFFF" filter="url(#f1)" height="87.3984" style="stroke: #A80036; stroke-width: 1.0;" width="10" x="830.5" y="1084.5469"/><rect fill="#FFFFFF" filter="url(#f1)" height="29.1328" style="stroke: #A80036; stroke-width: 1.0;" width="10" x="1101.5" y="236.8281"/><rect fill="#FFFFFF" filter="url(#f1)" height="98.5313" style="stroke: #A80036; stroke-width: 1.0;" width="10" x="1101.5" y="373.3594"/><rect fill="#FFFFFF" filter="url(#f1)" height="87.3984" style="stroke: #A80036; stroke-width: 1.0;" width="10" x="1101.5" y="792.2188"/><rect fill="#FFFFFF" filter="url(#f1)" height="29.1328" style="stroke: #A80036; stroke-width: 1.0;" width="10" x="1101.5" y="1113.6797"/><polygon fill="#A80036" points="237,110.2969,247,114.2969,237,118.2969,241,114.2969" style="stroke: #A80036; stroke-width: 1.0;"/><line style="stroke: #A80036; stroke-width: 1.0;" x1="24" x2="243" y1="114.2969" y2="114.2969"/><text fill="#000000" font-family="sans-serif" font-size="13" lengthAdjust="spacingAndGlyphs" textLength="201" x="31" y="109.3638">Click on Publish to Google Drive</text><polygon fill="#FBFB77" filter="url(#f1)" points="29,127.4297,29,167.4297,228,167.4297,228,137.4297,218,127.4297,29,127.4297" style="stroke: #A80036; stroke-width: 1.0;"/><line style="stroke: #A80036; stroke-width: 1.0;" x1="218" x2="218" y1="127.4297" y2="137.4297"/><line style="stroke: #A80036; stroke-width: 1.0;" x1="228" x2="218" y1="137.4297" y2="137.4297"/><text fill="#000000" font-family="sans-serif" font-size="13" lengthAdjust="spacingAndGlyphs" textLength="67" x="35" y="144.4966">click event</text><text fill="#000000" font-family="sans-serif" font-size="13" lengthAdjust="spacingAndGlyphs" textLength="178" x="35" y="159.6294">on #file_export_googledrive</text><polygon fill="#FBFB77" filter="url(#f1)" points="264,181.6953,264,206.6953,401,206.6953,401,191.6953,391,181.6953,264,181.6953" style="stroke: #A80036; stroke-width: 1.0;"/><line style="stroke: #A80036; stroke-width: 1.0;" x1="391" x2="391" y1="181.6953" y2="191.6953"/><line style="stroke: #A80036; stroke-width: 1.0;" x1="401" x2="391" y1="191.6953" y2="191.6953"/><text fill="#000000" font-family="sans-serif" font-size="13" lengthAdjust="spacingAndGlyphs" textLength="116" x="270" y="198.7622">inmediate = TRUE</text><polygon fill="#A80036" points="1089.5,232.8281,1099.5,236.8281,1089.5,240.8281,1093.5,236.8281" style="stroke: #A80036; stroke-width: 1.0;"/><line style="stroke: #A80036; stroke-width: 1.0;" x1="259" x2="1095.5" y1="236.8281" y2="236.8281"/><text fill="#000000" font-family="sans-serif" font-size="13" lengthAdjust="spacingAndGlyphs" textLength="70" x="266" y="231.895">authorize()</text><polygon fill="#A80036" points="270,261.9609,260,265.9609,270,269.9609,266,265.9609" style="stroke: #A80036; stroke-width: 1.0;"/><line style="stroke: #A80036; stroke-width: 1.0; stroke-dasharray: 2.0,2.0;" x1="264" x2="1105.5" y1="265.9609" y2="265.9609"/><text fill="#000000" font-family="sans-serif" font-size="13" lengthAdjust="spacingAndGlyphs" textLength="68" x="276" y="261.0278">authResult</text><polygon fill="#FBFB77" filter="url(#f1)" points="843,279.0938,843,304.0938,1097,304.0938,1097,289.0938,1087,279.0938,843,279.0938" style="stroke: #A80036; stroke-width: 1.0;"/><line style="stroke: #A80036; stroke-width: 1.0;" x1="1087" x2="1087" y1="279.0938" y2="289.0938"/><line style="stroke: #A80036; stroke-width: 1.0;" x1="1097" x2="1087" y1="289.0938" y2="289.0938"/><text fill="#000000" font-family="sans-serif" font-size="13" lengthAdjust="spacingAndGlyphs" textLength="233" x="849" y="296.1606">authResult.error = 'inmediate_failed'</text><polygon fill="#FBFB77" filter="url(#f1)" points="264,318.2266,264,343.2266,408,343.2266,408,328.2266,398,318.2266,264,318.2266" style="stroke: #A80036; stroke-width: 1.0;"/><line style="stroke: #A80036; stroke-width: 1.0;" x1="398" x2="398" y1="318.2266" y2="328.2266"/><line style="stroke: #A80036; stroke-width: 1.0;" x1="408" x2="398" y1="328.2266" y2="328.2266"/><text fill="#000000" font-family="sans-serif" font-size="13" lengthAdjust="spacingAndGlyphs" textLength="123" x="270" y="335.2935">inmediate = FALSE</text><polygon fill="#A80036" points="1089.5,369.3594,1099.5,373.3594,1089.5,377.3594,1093.5,373.3594" style="stroke: #A80036; stroke-width: 1.0;"/><line style="stroke: #A80036; stroke-width: 1.0;" x1="254" x2="1095.5" y1="373.3594" y2="373.3594"/><text fill="#000000" font-family="sans-serif" font-size="13" lengthAdjust="spacingAndGlyphs" textLength="70" x="261" y="368.4263">authorize()</text><polygon fill="#FBFB77" filter="url(#f1)" points="1009,386.4922,1009,441.4922,1200,441.4922,1200,396.4922,1190,386.4922,1009,386.4922" style="stroke: #A80036; stroke-width: 1.0;"/><line style="stroke: #A80036; stroke-width: 1.0;" x1="1190" x2="1190" y1="386.4922" y2="396.4922"/><line style="stroke: #A80036; stroke-width: 1.0;" x1="1200" x2="1190" y1="396.4922" y2="396.4922"/><text fill="#000000" font-family="sans-serif" font-size="13" lengthAdjust="spacingAndGlyphs" textLength="143" x="1015" y="403.5591">Authorization process:</text><text fill="#000000" font-family="sans-serif" font-size="13" lengthAdjust="spacingAndGlyphs" textLength="170" x="1015" y="418.6919">User logins and authorizes</text><text fill="#000000" font-family="sans-serif" font-size="13" lengthAdjust="spacingAndGlyphs" textLength="117" x="1015" y="433.8247">eXe to upload files</text><polygon fill="#A80036" points="382,467.8906,372,471.8906,382,475.8906,378,471.8906" style="stroke: #A80036; stroke-width: 1.0;"/><line style="stroke: #A80036; stroke-width: 1.0; stroke-dasharray: 2.0,2.0;" x1="376" x2="1105.5" y1="471.8906" y2="471.8906"/><text fill="#000000" font-family="sans-serif" font-size="13" lengthAdjust="spacingAndGlyphs" textLength="68" x="388" y="466.9575">authResult</text><polygon fill="#A80036" points="270,497.0234,260,501.0234,270,505.0234,266,501.0234" style="stroke: #A80036; stroke-width: 1.0;"/><line style="stroke: #A80036; stroke-width: 1.0;" x1="264" x2="365" y1="501.0234" y2="501.0234"/><text fill="#000000" font-family="sans-serif" font-size="13" lengthAdjust="spacingAndGlyphs" textLength="68" x="276" y="496.0903">authResult</text><polygon fill="#FBFB77" filter="url(#f1)" points="812,514.1563,812,539.1563,1097,539.1563,1097,524.1563,1087,514.1563,812,514.1563" style="stroke: #A80036; stroke-width: 1.0;"/><line style="stroke: #A80036; stroke-width: 1.0;" x1="1087" x2="1087" y1="514.1563" y2="524.1563"/><line style="stroke: #A80036; stroke-width: 1.0;" x1="1097" x2="1087" y1="524.1563" y2="524.1563"/><text fill="#000000" font-family="sans-serif" font-size="13" lengthAdjust="spacingAndGlyphs" textLength="264" x="818" y="531.2231">authResult.access_token = '&lt;&lt;token&gt;&gt;'</text><polygon fill="#FBFB77" filter="url(#f1)" points="264,553.2891,264,593.2891,550,593.2891,550,563.2891,540,553.2891,264,553.2891" style="stroke: #A80036; stroke-width: 1.0;"/><line style="stroke: #A80036; stroke-width: 1.0;" x1="540" x2="540" y1="553.2891" y2="563.2891"/><line style="stroke: #A80036; stroke-width: 1.0;" x1="550" x2="540" y1="563.2891" y2="563.2891"/><text fill="#000000" font-family="sans-serif" font-size="13" lengthAdjust="spacingAndGlyphs" textLength="265" x="270" y="570.356">access_token = authResult.access_token</text><text fill="#000000" font-family="sans-serif" font-size="13" lengthAdjust="spacingAndGlyphs" textLength="221" x="270" y="585.4888">user_agent = navigator.userAgent</text><polygon fill="#A80036" points="478.5,619.5547,488.5,623.5547,478.5,627.5547,482.5,623.5547" style="stroke: #A80036; stroke-width: 1.0;"/><line style="stroke: #A80036; stroke-width: 1.0;" x1="254" x2="484.5" y1="623.5547" y2="623.5547"/><text fill="#000000" font-family="sans-serif" font-size="13" lengthAdjust="spacingAndGlyphs" textLength="129" x="261" y="618.6216">exportGoogleDrive()</text><polygon fill="#FBFB77" filter="url(#f1)" points="395,636.6875,395,661.6875,592,661.6875,592,646.6875,582,636.6875,395,636.6875" style="stroke: #A80036; stroke-width: 1.0;"/><line style="stroke: #A80036; stroke-width: 1.0;" x1="582" x2="582" y1="636.6875" y2="646.6875"/><line style="stroke: #A80036; stroke-width: 1.0;" x1="592" x2="582" y1="646.6875" y2="646.6875"/><text fill="#000000" font-family="sans-serif" font-size="13" lengthAdjust="spacingAndGlyphs" textLength="176" x="401" y="653.7544">exportDir = &lt;&lt;temp dir&gt;&gt;</text><line style="stroke: #A80036; stroke-width: 1.0;" x1="500.5" x2="547.5" y1="686.9531" y2="686.9531"/><line style="stroke: #A80036; stroke-width: 1.0;" x1="547.5" x2="547.5" y1="686.9531" y2="699.9531"/><line style="stroke: #A80036; stroke-width: 1.0;" x1="506.5" x2="547.5" y1="699.9531" y2="699.9531"/><polygon fill="#A80036" points="516.5,695.9531,506.5,699.9531,516.5,703.9531,512.5,699.9531" style="stroke: #A80036; stroke-width: 1.0;"/><text fill="#000000" font-family="sans-serif" font-size="13" lengthAdjust="spacingAndGlyphs" textLength="103" x="512.5" y="681.8872">exportWebSite()</text><polygon fill="#A80036" points="265,729.9531,255,733.9531,265,737.9531,261,733.9531" style="stroke: #A80036; stroke-width: 1.0;"/><line style="stroke: #A80036; stroke-width: 1.0;" x1="259" x2="489.5" y1="733.9531" y2="733.9531"/><text fill="#000000" font-family="sans-serif" font-size="13" lengthAdjust="spacingAndGlyphs" textLength="197" x="271" y="729.02">googleExportProgressUpdate()</text><line style="stroke: #A80036; stroke-width: 1.0;" x1="828.5" x2="818.5" y1="763.0859" y2="759.0859"/><line style="stroke: #A80036; stroke-width: 1.0;" x1="828.5" x2="818.5" y1="763.0859" y2="767.0859"/><line style="stroke: #A80036; stroke-width: 1.0;" x1="495.5" x2="829.5" y1="763.0859" y2="763.0859"/><text fill="#000000" font-family="sans-serif" font-size="13" lengthAdjust="spacingAndGlyphs" textLength="271" x="502.5" y="758.1528">uploadPublicFolder(folderName, exportDir)</text><polygon fill="#A80036" points="1089.5,788.2188,1099.5,792.2188,1089.5,796.2188,1093.5,792.2188" style="stroke: #A80036; stroke-width: 1.0;"/><line style="stroke: #A80036; stroke-width: 1.0;" x1="840.5" x2="1095.5" y1="792.2188" y2="792.2188"/><text fill="#000000" font-family="sans-serif" font-size="13" lengthAdjust="spacingAndGlyphs" textLength="185" x="847.5" y="787.2856">drive.files().insert().execute()</text><polygon fill="#A80036" points="851.5,817.3516,841.5,821.3516,851.5,825.3516,847.5,821.3516" style="stroke: #A80036; stroke-width: 1.0;"/><line style="stroke: #A80036; stroke-width: 1.0; stroke-dasharray: 2.0,2.0;" x1="845.5" x2="1100.5" y1="821.3516" y2="821.3516"/><text fill="#000000" font-family="sans-serif" font-size="13" lengthAdjust="spacingAndGlyphs" textLength="77" x="857.5" y="816.4185">fileResource</text><polygon fill="#A80036" points="1089.5,846.4844,1099.5,850.4844,1089.5,854.4844,1093.5,850.4844" style="stroke: #A80036; stroke-width: 1.0;"/><line style="stroke: #A80036; stroke-width: 1.0;" x1="840.5" x2="1095.5" y1="850.4844" y2="850.4844"/><text fill="#000000" font-family="sans-serif" font-size="13" lengthAdjust="spacingAndGlyphs" textLength="237" x="847.5" y="845.5513">drive.permissions().insert().execute()</text><polygon fill="#A80036" points="851.5,875.6172,841.5,879.6172,851.5,883.6172,847.5,879.6172" style="stroke: #A80036; stroke-width: 1.0;"/><line style="stroke: #A80036; stroke-width: 1.0; stroke-dasharray: 2.0,2.0;" x1="845.5" x2="1105.5" y1="879.6172" y2="879.6172"/><text fill="#000000" font-family="sans-serif" font-size="13" lengthAdjust="spacingAndGlyphs" textLength="136" x="857.5" y="874.6841">permissionsResource</text><polygon fill="#FBFB77" filter="url(#f1)" points="602,892.75,602,917.75,821,917.75,821,902.75,811,892.75,602,892.75" style="stroke: #A80036; stroke-width: 1.0;"/><line style="stroke: #A80036; stroke-width: 1.0;" x1="811" x2="811" y1="892.75" y2="902.75"/><line style="stroke: #A80036; stroke-width: 1.0;" x1="821" x2="811" y1="902.75" y2="902.75"/><text fill="#000000" font-family="sans-serif" font-size="13" lengthAdjust="spacingAndGlyphs" textLength="198" x="608" y="909.8169">publicFolderId = fileResource.id</text><polygon fill="#A80036" points="511.5,943.8828,501.5,947.8828,511.5,951.8828,507.5,947.8828" style="stroke: #A80036; stroke-width: 1.0;"/><line style="stroke: #A80036; stroke-width: 1.0;" x1="505.5" x2="834.5" y1="947.8828" y2="947.8828"/><text fill="#000000" font-family="sans-serif" font-size="13" lengthAdjust="spacingAndGlyphs" textLength="306" x="517.5" y="942.9497">publicFolder_onSuccess(fileResource, exportDir)</text><polygon fill="#A80036" points="265,973.0156,255,977.0156,265,981.0156,261,977.0156" style="stroke: #A80036; stroke-width: 1.0;"/><line style="stroke: #A80036; stroke-width: 1.0;" x1="259" x2="489.5" y1="977.0156" y2="977.0156"/><text fill="#000000" font-family="sans-serif" font-size="13" lengthAdjust="spacingAndGlyphs" textLength="197" x="271" y="972.0825">googleExportProgressUpdate()</text><polygon fill="#FBFB77" filter="url(#f1)" points="421,990.1484,421,1030.1484,565,1030.1484,565,1000.1484,555,990.1484,421,990.1484" style="stroke: #A80036; stroke-width: 1.0;"/><line style="stroke: #A80036; stroke-width: 1.0;" x1="555" x2="555" y1="990.1484" y2="1000.1484"/><line style="stroke: #A80036; stroke-width: 1.0;" x1="565" x2="555" y1="1000.1484" y2="1000.1484"/><text fill="#000000" font-family="sans-serif" font-size="13" lengthAdjust="spacingAndGlyphs" textLength="123" x="427" y="1007.2153">chained async calls</text><text fill="#000000" font-family="sans-serif" font-size="13" lengthAdjust="spacingAndGlyphs" textLength="91" x="427" y="1022.3481">to uploadFile()</text><rect fill="none" height="162.7969" style="stroke: #000000; stroke-width: 2.0;" width="950" x="213" y="1046.4141"/><polygon fill="#EEEEEE" points="213,1046.4141,290,1046.4141,290,1053.4141,280,1063.4141,213,1063.4141,213,1046.4141" style="stroke: #000000; stroke-width: 2.0;"/><text fill="#000000" font-family="sans-serif" font-size="13" font-weight="bold" lengthAdjust="spacingAndGlyphs" textLength="32" x="228" y="1059.481">loop</text><text fill="#000000" font-family="sans-serif" font-size="11" font-weight="bold" lengthAdjust="spacingAndGlyphs" textLength="117" x="305" y="1058.6245">[files in exportDir]</text><line style="stroke: #A80036; stroke-width: 1.0;" x1="828.5" x2="818.5" y1="1084.5469" y2="1080.5469"/><line style="stroke: #A80036; stroke-width: 1.0;" x1="828.5" x2="818.5" y1="1084.5469" y2="1088.5469"/><line style="stroke: #A80036; stroke-width: 1.0;" x1="495.5" x2="829.5" y1="1084.5469" y2="1084.5469"/><text fill="#000000" font-family="sans-serif" font-size="13" lengthAdjust="spacingAndGlyphs" textLength="179" x="502.5" y="1079.6138">uploadFile(pulicFolderId, file)</text><polygon fill="#A80036" points="1089.5,1109.6797,1099.5,1113.6797,1089.5,1117.6797,1093.5,1113.6797" style="stroke: #A80036; stroke-width: 1.0;"/><line style="stroke: #A80036; stroke-width: 1.0;" x1="840.5" x2="1095.5" y1="1113.6797" y2="1113.6797"/><text fill="#000000" font-family="sans-serif" font-size="13" lengthAdjust="spacingAndGlyphs" textLength="110" x="847.5" y="1108.7466">drive.files.insert()</text><polygon fill="#A80036" points="851.5,1138.8125,841.5,1142.8125,851.5,1146.8125,847.5,1142.8125" style="stroke: #A80036; stroke-width: 1.0;"/><line style="stroke: #A80036; stroke-width: 1.0; stroke-dasharray: 2.0,2.0;" x1="845.5" x2="1105.5" y1="1142.8125" y2="1142.8125"/><text fill="#000000" font-family="sans-serif" font-size="13" lengthAdjust="spacingAndGlyphs" textLength="77" x="857.5" y="1137.8794">fileResource</text><polygon fill="#A80036" points="511.5,1167.9453,501.5,1171.9453,511.5,1175.9453,507.5,1171.9453" style="stroke: #A80036; stroke-width: 1.0;"/><line style="stroke: #A80036; stroke-width: 1.0;" x1="505.5" x2="834.5" y1="1171.9453" y2="1171.9453"/><text fill="#000000" font-family="sans-serif" font-size="13" lengthAdjust="spacingAndGlyphs" textLength="154" x="517.5" y="1167.0122">uploadfFile_onSuccess()</text><polygon fill="#A80036" points="265,1197.0781,255,1201.0781,265,1205.0781,261,1201.0781" style="stroke: #A80036; stroke-width: 1.0;"/><line style="stroke: #A80036; stroke-width: 1.0;" x1="259" x2="489.5" y1="1201.0781" y2="1201.0781"/><text fill="#000000" font-family="sans-serif" font-size="13" lengthAdjust="spacingAndGlyphs" textLength="197" x="271" y="1196.145">googleExportProgressUpdate()</text><line style="stroke: #A80036; stroke-width: 1.0;" x1="500.5" x2="542.5" y1="1237.3438" y2="1237.3438"/><line style="stroke: #A80036; stroke-width: 1.0;" x1="542.5" x2="542.5" y1="1237.3438" y2="1250.3438"/><line style="stroke: #A80036; stroke-width: 1.0;" x1="501.5" x2="542.5" y1="1250.3438" y2="1250.3438"/><polygon fill="#A80036" points="511.5,1246.3438,501.5,1250.3438,511.5,1254.3438,507.5,1250.3438" style="stroke: #A80036; stroke-width: 1.0;"/><text fill="#000000" font-family="sans-serif" font-size="13" lengthAdjust="spacingAndGlyphs" textLength="163" x="507.5" y="1232.2778">deleteTempDir(exportDir)</text><polygon fill="#A80036" points="270,1275.3438,260,1279.3438,270,1283.3438,266,1279.3438" style="stroke: #A80036; stroke-width: 1.0;"/><line style="stroke: #A80036; stroke-width: 1.0;" x1="264" x2="494.5" y1="1279.3438" y2="1279.3438"/><text fill="#000000" font-family="sans-serif" font-size="13" lengthAdjust="spacingAndGlyphs" textLength="197" x="276" y="1274.4106">googleExportProgressUpdate()</text><polygon fill="#A80036" points="35,1304.4766,25,1308.4766,35,1312.4766,31,1308.4766" style="stroke: #A80036; stroke-width: 1.0;"/><line style="stroke: #A80036; stroke-width: 1.0;" x1="29" x2="253" y1="1308.4766" y2="1308.4766"/><text fill="#000000" font-family="sans-serif" font-size="13" lengthAdjust="spacingAndGlyphs" textLength="94" x="41" y="1303.5435">Export finished</text></g></svg>