<?xml version="1.0" encoding="UTF-8" standalone="yes"?><svg xmlns="http://www.w3.org/2000/svg" xmlns:xlink="http://www.w3.org/1999/xlink" height="357pt" style="width:222px;height:357px;" version="1.1" viewBox="0 0 222 357" width="222pt"><defs><filter height="300%" id="f1" width="300%" x="-1" y="-1"><feGaussianBlur result="blurOut" stdDeviation="2.0"/><feColorMatrix in="blurOut" result="blurOut2" type="matrix" values="0 0 0 0 0 0 0 0 0 0 0 0 0 0 0 0 0 0 .4 0"/><feOffset dx="4.0" dy="4.0" in="blurOut2" result="blurOut3"/><feBlend in="SourceGraphic" in2="blurOut3" mode="normal"/></filter></defs><g><ellipse cx="85" cy="20" fill="#000000" filter="url(#f1)" rx="10" ry="10" style="stroke: none; stroke-width: 1.0;"/><rect fill="#FAFAFA" filter="url(#f1)" height="33.9688" rx="12.5" ry="12.5" style="stroke: #A80036; stroke-width: 1.5;" width="98" x="36" y="71.3989"/><text fill="#000000" font-family="sans-serif" font-size="12" lengthAdjust="spacingAndGlyphs" textLength="78" x="46" y="92.5376">Google login</text><rect fill="#FAFAFA" filter="url(#f1)" height="33.9688" rx="12.5" ry="12.5" style="stroke: #A80036; stroke-width: 1.5;" width="150" x="10" y="146.7666"/><text fill="#000000" font-family="sans-serif" font-size="12" lengthAdjust="spacingAndGlyphs" textLength="130" x="20" y="167.9053">App scopes overview</text><rect fill="#FAFFF0" filter="url(#f1)" height="33.9688" rx="12.5" ry="12.5" style="stroke: #A80036; stroke-width: 1.5;" width="116" x="27" y="222.1343"/><text fill="#000000" font-family="sans-serif" font-size="12" lengthAdjust="spacingAndGlyphs" textLength="96" x="37" y="243.2729">Export web site</text><rect fill="#FAFFF0" filter="url(#f1)" height="33.9688" rx="12.5" ry="12.5" style="stroke: #A80036; stroke-width: 1.5;" width="116" x="27" y="276.103"/><text fill="#000000" font-family="sans-serif" font-size="12" lengthAdjust="spacingAndGlyphs" textLength="96" x="37" y="297.2417">Upload to Drive</text><ellipse cx="85" cy="340.0718" fill="none" filter="url(#f1)" rx="10" ry="10" style="stroke: #000000; stroke-width: 1.0;"/><ellipse cx="85.5" cy="340.5718" fill="#000000" filter="url(#f1)" rx="6" ry="6" style="stroke: none; stroke-width: 1.0;"/><line style="stroke: #A80036; stroke-width: 1.5;" x1="85" x2="85" y1="30" y2="71.3989"/><polygon fill="#A80036" points="81,61.3989,85,71.3989,89,61.3989,85,65.3989" style="stroke: #A80036; stroke-width: 1.0;"/><text fill="#000000" font-family="sans-serif" font-size="11" lengthAdjust="spacingAndGlyphs" textLength="132" x="89" y="51.3047">Publish in Google Drive</text><line style="stroke: #A80036; stroke-width: 1.5;" x1="85" x2="85" y1="105.3677" y2="146.7666"/><polygon fill="#A80036" points="81,136.7666,85,146.7666,89,136.7666,85,140.7666" style="stroke: #A80036; stroke-width: 1.0;"/><text fill="#000000" font-family="sans-serif" font-size="11" lengthAdjust="spacingAndGlyphs" textLength="76" x="89" y="126.6724">User signs in</text><line style="stroke: #A80036; stroke-width: 1.5;" x1="85" x2="85" y1="180.7354" y2="222.1343"/><polygon fill="#A80036" points="81,212.1343,85,222.1343,89,212.1343,85,216.1343" style="stroke: #A80036; stroke-width: 1.0;"/><text fill="#000000" font-family="sans-serif" font-size="11" lengthAdjust="spacingAndGlyphs" textLength="115" x="89" y="202.04">User authorizes app</text><line style="stroke: #A80036; stroke-width: 1.5;" x1="85" x2="85" y1="256.103" y2="276.103"/><polygon fill="#A80036" points="81,266.103,85,276.103,89,266.103,85,270.103" style="stroke: #A80036; stroke-width: 1.0;"/><line style="stroke: #A80036; stroke-width: 1.5;" x1="85" x2="85" y1="310.0718" y2="330.0718"/><polygon fill="#A80036" points="81,320.0718,85,330.0718,89,320.0718,85,324.0718" style="stroke: #A80036; stroke-width: 1.0;"/></g></svg>